<?xml version="1.0" standalone="no"?>
<!DOCTYPE svg PUBLIC "-//W3C//DTD SVG 20010904//EN"
 "http://www.w3.org/TR/2001/REC-SVG-20010904/DTD/svg10.dtd">
<svg version="1.0" xmlns="http://www.w3.org/2000/svg"
 width="2072.000000pt" height="1775.000000pt" viewBox="0 0 2072.000000 1775.000000"
 preserveAspectRatio="xMidYMid meet">

<g transform="translate(0.000000,1775.000000) scale(0.100000,-0.100000)"
fill="#000000" stroke="none">
<path d="M10837 17650 c-166 -42 -239 -177 -241 -442 l-1 -128 -40 0 c-86 -1
-182 -78 -232 -187 -23 -49 -25 -64 -20 -146 3 -56 13 -118 26 -157 24 -71
121 -271 150 -309 l18 -24 31 23 c63 47 202 43 296 -8 61 -33 91 -78 141 -211
37 -99 68 -142 111 -155 60 -18 68 65 33 379 -11 105 -18 208 -14 232 10 68
27 74 238 89 241 17 260 23 342 108 114 118 223 116 351 -5 29 -26 80 -66 115
-89 58 -38 169 -80 209 -80 27 0 34 -96 15 -224 -9 -59 -18 -112 -20 -119 -3
-7 19 -25 47 -42 65 -38 107 -98 129 -183 l17 -67 7 46 c4 26 5 72 3 102 l-3
55 79 7 c238 20 427 121 487 258 34 78 38 188 9 254 -30 70 -112 146 -203 188
-74 34 -212 75 -253 75 -36 0 -35 13 3 60 77 97 115 218 94 297 -26 97 -102
159 -237 193 -99 26 -338 28 -488 5 -128 -19 -133 -19 -140 8 -10 43 -73 103
-138 133 -63 29 -63 29 -253 28 -104 0 -207 -5 -229 -10 -32 -8 -53 -5 -124
19 -95 32 -245 45 -315 27z"/>
<path d="M4347 17168 c-8 -7 -333 -366 -721 -798 l-706 -785 0 -240 c0 -209
38 -5621 55 -7705 16 -1999 45 -6016 45 -6181 l0 -187 -352 -5 c-388 -5 -410
-7 -543 -71 -175 -83 -297 -222 -361 -411 -21 -63 -28 -106 -32 -199 l-5 -118
859 6 c472 3 1085 9 1362 12 l502 6 0 98 c0 266 -147 500 -385 615 -138 66
-159 69 -557 66 l-358 -2 0 258 c0 225 -28 4204 -45 6318 -16 2018 -55 7408
-55 7540 l1 150 630 700 c347 385 648 720 669 744 l37 43 404 -400 c317 -315
402 -404 394 -415 -5 -8 -36 -45 -69 -83 -271 -318 -421 -763 -403 -1194 15
-330 100 -599 286 -900 8 -13 12 -12 29 3 18 16 20 16 26 2 3 -9 6 -35 6 -58
0 -57 65 -628 90 -790 77 -499 313 -1603 634 -2972 36 -153 66 -285 66 -292 0
-10 -30 -13 -127 -13 -249 0 -538 -38 -810 -105 -378 -93 -577 -198 -804 -425
-216 -216 -344 -448 -408 -741 -41 -190 -50 -521 -21 -779 6 -47 17 -256 25
-465 102 -2511 297 -4311 505 -4638 37 -59 106 -113 216 -169 221 -114 526
-171 889 -168 94 1 296 -1 450 -5 279 -7 584 3 780 26 74 9 117 8 220 -5 71
-8 132 -19 136 -23 6 -7 211 -717 469 -1625 l73 -258 404 0 405 0 -8 902 -7
901 189 -6 c667 -23 1183 -29 1979 -24 998 7 1547 25 2179 72 110 8 200 14
202 13 1 -2 3 -300 4 -663 1 -363 4 -771 7 -907 l6 -248 402 0 401 0 66 243
c492 1827 481 1789 508 1800 98 41 190 88 219 113 35 29 97 148 121 231 l13
41 65 -55 c77 -66 181 -117 277 -138 99 -21 743 -32 960 -16 316 23 487 55
600 111 137 67 236 177 328 360 l52 105 -3 149 -4 149 39 -6 c21 -4 151 -12
288 -18 300 -14 2069 -6 2390 10 373 19 519 38 417 55 -83 13 -485 25 -924 28
-252 2 -458 6 -458 9 0 11 220 344 230 347 4 2 48 -17 97 -41 185 -93 367
-134 557 -124 290 14 535 156 753 437 l73 95 -29 3 c-41 4 -140 -23 -261 -73
-268 -110 -396 -121 -477 -40 -88 88 9 185 248 250 113 30 291 55 398 55 86 0
176 14 232 36 32 14 42 26 82 112 72 153 126 297 163 432 35 128 64 279 64
338 l0 33 -72 -41 c-118 -67 -288 -146 -362 -169 -139 -43 -216 -19 -216 67 0
103 165 249 475 422 72 40 133 75 137 79 5 4 -8 40 -27 80 -41 86 -140 190
-222 234 -146 78 -348 87 -555 25 l-36 -11 -6 -126 c-14 -285 -40 -417 -94
-474 -78 -83 -160 24 -232 304 -16 63 -29 115 -30 117 -2 13 -305 -209 -416
-305 -58 -51 -63 -58 -83 -131 -30 -113 -43 -252 -30 -348 21 -164 23 -286 5
-349 -32 -108 -111 -149 -168 -87 -71 77 -66 193 27 541 19 73 35 145 35 160
-1 25 -2 25 -42 -19 -269 -294 -358 -618 -268 -972 36 -140 126 -326 214 -441
l34 -44 -114 -174 c-142 -216 -136 -209 -178 -209 l-34 0 -21 93 c-29 128 -47
238 -68 412 -33 276 -19 1198 23 1538 6 46 7 47 39 47 19 0 67 12 107 26 268
96 502 287 622 506 87 157 120 315 114 536 -3 84 -9 157 -15 163 -11 11 -43
-53 -104 -218 -104 -278 -189 -393 -293 -393 -48 0 -76 37 -76 100 0 76 53
169 163 286 130 139 184 223 244 382 l24 64 -31 116 c-32 119 -106 346 -134
415 l-16 37 -83 -71 c-105 -92 -212 -162 -271 -179 -43 -12 -50 -11 -74 7 -74
55 -5 245 182 507 32 43 55 84 53 90 -13 31 -133 159 -189 201 -131 98 -225
130 -378 129 -115 0 -173 -17 -263 -73 l-46 -30 59 -124 c150 -313 206 -542
157 -635 -72 -133 -219 0 -387 352 l-67 139 -26 -44 c-109 -186 -211 -483
-255 -744 l-19 -110 28 -40 c34 -50 95 -107 179 -170 145 -109 313 -292 370
-404 53 -107 49 -170 -15 -196 -73 -31 -141 -7 -228 81 -52 53 -80 91 -200
274 -30 47 -79 108 -107 135 l-52 50 5 -135 c9 -211 43 -354 119 -505 133
-263 405 -451 736 -509 46 -7 85 -16 88 -18 2 -3 -3 -97 -11 -209 -58 -812
-39 -1371 60 -1793 22 -92 27 -87 -76 -84 l-91 3 -93 205 c-51 113 -108 240
-128 282 l-35 77 32 43 c83 110 165 283 208 439 20 72 23 108 23 249 0 143 -3
176 -23 245 -48 164 -139 322 -262 455 l-61 65 6 -45 c4 -25 24 -108 45 -185
60 -221 64 -245 64 -340 0 -95 -11 -131 -53 -169 -50 -45 -127 -4 -155 83 -26
78 -28 141 -12 266 25 187 19 298 -26 453 l-21 74 -122 97 c-68 54 -168 128
-224 166 -116 79 -108 56 -91 255 31 371 41 1049 20 1369 -72 1079 -340 1775
-819 2130 -100 74 -260 155 -387 196 l-92 30 -12 55 c-76 340 -460 610 -870
610 -89 0 -227 -14 -237 -24 -2 -2 6 -41 17 -87 27 -110 37 -294 20 -396 -27
-171 -111 -335 -235 -458 -104 -105 -285 -229 -567 -389 -56 -31 -43 41 -109
-601 -27 -269 -51 -490 -52 -491 -1 -1 -726 -7 -1612 -13 -885 -6 -1791 -13
-2012 -16 l-403 -6 6 43 c3 24 63 534 134 1133 109 919 127 1092 115 1104 -20
21 -43 6 -50 -31 -4 -27 -265 -2232 -265 -2244 0 -2 -20 -4 -44 -4 l-44 0 -8
-77 c-5 -43 -10 -68 -12 -57 -1 12 8 131 22 265 15 134 26 256 26 271 l0 28
-97 0 c-64 -1 -107 -6 -123 -14 -22 -13 -36 -10 -147 29 -847 301 -1597 655
-1951 922 -163 122 -264 258 -323 433 -29 84 -33 111 -37 235 -5 160 10 262
59 404 17 47 48 144 70 215 85 276 223 608 402 971 92 186 97 201 80 212 -64
43 -66 28 16 185 95 186 206 372 347 583 428 643 937 1105 1404 1273 47 17
121 47 165 66 52 23 122 43 200 56 274 49 465 116 685 241 79 44 87 54 124
159 42 119 74 258 134 574 l47 249 54 14 c59 15 121 55 121 79 0 27 -29 26
-66 -3 -32 -24 -46 -28 -103 -28 -56 0 -78 6 -145 38 -101 48 -212 155 -255
246 l-29 61 -40 -44 c-53 -58 -82 -116 -82 -166 0 -86 154 -202 287 -218 61
-7 62 -7 45 -28 -16 -20 -23 -21 -117 -13 -607 47 -1641 65 -2195 39 -552 -26
-1091 -82 -1395 -145 -18 -4 -20 -11 -17 -75 13 -276 -180 -534 -453 -605 -76
-19 -224 -19 -300 0 -65 17 -170 67 -197 93 -17 16 30 59 822 749 462 403 841
736 842 740 1 5 -25 30 -58 56 -209 170 -480 297 -764 359 -93 20 -133 22
-345 22 -212 0 -252 -2 -345 -22 -287 -63 -569 -196 -775 -369 l-61 -50 -441
433 c-454 447 -463 454 -506 422z m13419 -9713 c59 -49 166 -185 208 -264 33
-64 40 -86 37 -123 -1 -25 -51 -24 -101 2 -50 25 -156 124 -219 204 -87 110
-100 158 -55 203 33 33 71 26 130 -22z m1171 -167 c28 -27 30 -70 4 -130 -41
-97 -97 -132 -165 -104 -43 18 -54 51 -37 115 30 113 137 177 198 119z m-4754
-896 c219 -371 516 -597 792 -603 l60 -1 272 -282 c288 -297 346 -362 423
-478 l47 -72 -64 -38 c-95 -55 -187 -132 -239 -199 l-47 -59 -50 46 c-183 165
-679 418 -1358 694 l-157 63 34 47 c76 107 140 280 164 445 13 92 13 299 0
404 -6 46 -9 90 -6 97 3 9 21 14 44 14 38 0 40 -2 85 -78z m-250 -11 c24 -223
17 -381 -24 -539 -23 -93 -96 -243 -141 -294 l-33 -37 -90 36 c-49 19 -93 38
-97 41 -4 4 7 27 24 52 106 154 171 380 185 642 l6 117 71 20 c39 11 76 20 82
20 6 1 14 -24 17 -58z m-306 -138 c-9 -167 -47 -322 -110 -448 -33 -67 -94
-155 -107 -155 -5 0 -34 9 -65 21 l-55 21 25 41 c87 141 174 343 214 497 23
86 32 107 52 117 50 26 52 22 46 -94z m-4782 79 c6 -4 10 -84 10 -202 1 -217
14 -308 66 -458 36 -102 83 -191 141 -268 22 -30 39 -56 37 -58 -2 -2 -143
-73 -314 -158 -589 -294 -915 -490 -1123 -676 -40 -36 -75 -62 -78 -59 -5 5
97 799 111 864 3 12 40 61 83 110 42 48 92 107 110 131 30 37 38 42 76 42 23
0 75 9 116 21 169 46 330 167 478 361 54 71 163 252 188 312 17 42 22 46 54
46 19 0 40 -4 45 -8z m236 -32 l66 -12 11 -103 c28 -257 105 -481 214 -625 21
-28 39 -55 41 -60 1 -6 -40 -30 -92 -54 l-94 -44 -49 57 c-64 73 -132 213
-162 333 -32 123 -48 306 -40 430 6 84 9 98 23 94 9 -2 46 -10 82 -16z m249
-140 c58 -178 163 -384 262 -518 22 -30 38 -55 36 -57 -1 -1 -21 -10 -42 -19
-38 -16 -40 -16 -64 6 -13 13 -44 53 -68 89 -75 113 -130 263 -159 433 -30
175 -12 209 35 66z m8214 -375 c44 -47 61 -179 30 -224 -9 -13 -32 -30 -52
-38 -32 -13 -37 -13 -61 4 -41 30 -61 80 -61 152 0 58 2 65 34 97 41 41 77 44
110 9z m1714 -177 c57 -62 54 -172 -7 -240 -24 -27 -32 -30 -63 -24 -44 8 -77
43 -84 88 -9 51 13 142 41 172 31 34 83 35 113 4z m1082 -548 c22 -22 26 -60
10 -91 -16 -29 -79 -57 -192 -84 -186 -45 -312 -42 -342 8 -35 58 263 185 437
186 54 1 71 -3 87 -19z m-3211 -350 c61 -31 101 -76 101 -114 0 -62 -55 -108
-144 -121 l-49 -8 7 54 c18 150 29 209 38 209 5 0 26 -9 47 -20z m817 -482
c15 -29 71 -150 125 -268 l98 -215 -87 -2 c-491 -12 -893 -26 -1016 -34 -82
-5 -151 -8 -153 -5 -3 2 9 73 26 158 16 84 35 186 41 225 10 63 14 72 28 64
54 -27 174 -46 297 -45 183 0 345 40 515 129 47 24 88 44 92 44 4 1 20 -23 34
-51z"/>
<path d="M11633 16455 c-56 -17 -128 -60 -148 -87 -34 -49 -7 -108 49 -108 15
0 47 14 71 31 50 36 123 49 176 30 41 -14 80 3 93 42 28 77 -115 132 -241 92z"/>
<path d="M12010 16400 c-43 -43 -15 -104 52 -115 73 -11 107 -25 130 -55 20
-24 31 -29 77 -31 49 -3 55 -1 63 20 14 38 -26 107 -81 142 -90 58 -204 76
-241 39z"/>
<path d="M11836 16211 c-3 -4 4 -36 15 -70 19 -54 23 -60 40 -51 23 13 23 11
2 77 -12 38 -22 53 -34 53 -10 0 -20 -4 -23 -9z"/>
<path d="M10577 16173 c-16 -15 -4 -31 53 -71 33 -24 60 -47 60 -51 0 -5 -11
-11 -23 -15 -32 -8 -77 -44 -77 -62 0 -26 27 -26 65 0 58 40 80 35 110 -24 14
-27 25 -60 25 -73 0 -30 23 -62 38 -53 22 14 12 81 -22 151 -34 71 -76 117
-155 174 -44 31 -62 37 -74 24z"/>
<path d="M11615 16147 c-55 -22 -78 -38 -67 -49 6 -6 21 -4 43 8 36 18 113 23
162 9 40 -11 35 13 -8 31 -41 17 -88 17 -130 1z"/>
<path d="M12321 16060 c-17 -106 -18 -104 39 -117 28 -7 64 -22 80 -33 l30
-21 0 41 c0 70 -49 154 -110 185 l-27 14 -12 -69z"/>
<path d="M11651 16064 c-29 -36 -33 -116 -7 -142 31 -32 76 27 76 101 0 68
-32 87 -69 41z"/>
<path d="M12060 16075 c-11 -13 -5 -15 42 -15 32 0 62 -6 74 -15 24 -18 44
-19 44 -2 0 36 -134 63 -160 32z"/>
<path d="M11906 16037 c-17 -12 -17 -17 4 -89 l23 -76 66 -29 66 -29 -82 -48
c-46 -26 -83 -54 -83 -62 0 -30 32 -25 103 17 39 23 87 51 105 62 36 21 42 52
12 62 -19 6 -19 6 0 38 22 36 26 107 8 125 -35 35 -80 -10 -82 -83 0 -25 -3
-45 -5 -45 -3 0 -19 5 -37 12 -28 10 -34 19 -48 72 -23 82 -28 89 -50 73z"/>
<path d="M12297 15887 c-3 -12 -9 -55 -13 -96 l-7 -74 48 7 c27 3 59 13 72 22
21 13 63 70 63 84 0 10 -66 47 -112 62 -45 16 -46 16 -51 -5z"/>
<path d="M11673 15544 c-8 -21 32 -61 92 -92 83 -42 246 -42 230 1 -4 8 -32
12 -88 12 -90 0 -139 19 -186 69 -28 30 -39 32 -48 10z"/>
<path d="M11760 15377 c0 -22 35 -47 74 -54 29 -4 36 -2 36 11 0 10 -8 16 -24
16 -13 0 -35 9 -49 20 -30 24 -37 25 -37 7z"/>
<path d="M12245 15308 c-2 -7 -13 -44 -25 -81 -92 -298 -353 -436 -649 -345
-91 28 -206 87 -285 147 -36 28 -66 46 -66 40 0 -40 132 -240 219 -332 108
-113 276 -221 359 -229 25 -3 27 0 30 38 3 39 5 41 30 36 37 -6 50 -18 57 -52
5 -22 24 -41 73 -74 124 -82 206 -115 492 -201 213 -64 334 -120 439 -202 269
-212 341 -272 461 -393 201 -201 411 -459 580 -712 l65 -98 7 33 c11 55 96
752 114 942 12 116 18 276 18 450 1 325 -5 355 -87 443 -69 73 -145 123 -291
192 -301 144 -731 264 -1354 380 -188 35 -181 34 -187 18z"/>
<path d="M12815 13070 c-4 -6 1 -32 9 -58 50 -152 68 -395 64 -847 -3 -364 -2
-370 17 -370 18 0 21 10 28 115 10 152 2 719 -13 840 -12 106 -43 260 -59 303
-11 27 -34 36 -46 17z"/>
<path d="M9794 12633 c-174 -331 -383 -615 -613 -837 -83 -79 -91 -90 -78
-104 14 -13 22 -9 78 39 119 103 297 314 435 513 67 97 71 100 125 117 103 30
279 128 279 155 0 27 -29 26 -72 -4 -68 -46 -237 -125 -225 -105 110 188 180
330 171 344 -15 25 -38 -2 -100 -118z"/>
<path d="M12904 11610 c3 -80 8 -215 11 -300 6 -162 21 -395 31 -467 l5 -43
345 0 c189 0 344 2 344 5 0 2 -33 55 -73 117 -103 159 -236 381 -362 603 -59
105 -109 192 -111 194 -2 3 -34 -1 -70 -8 -67 -12 -67 -12 -96 16 l-29 28 5
-145z"/>
<path d="M8845 11502 c-115 -210 -262 -462 -382 -654 -96 -154 -106 -166 -124
-155 -10 6 -26 32 -34 57 -19 56 -100 165 -159 214 -49 40 -58 43 -76 22 -9
-12 0 -26 52 -78 62 -61 121 -135 102 -127 -5 2 -54 30 -109 61 -110 63 -266
135 -312 144 -23 4 -32 2 -37 -11 -9 -24 -3 -30 61 -55 145 -58 311 -149 431
-237 42 -31 81 -53 92 -51 29 5 226 -141 542 -401 l29 -23 -8 103 c-12 153 -9
914 5 1138 6 107 11 196 9 197 -1 1 -38 -63 -82 -144z"/>
<path d="M13885 10983 c-52 -53 -125 -148 -125 -165 0 -3 36 -7 81 -7 77 0 85
2 157 42 42 23 121 63 176 88 105 49 133 72 106 89 -20 12 -34 8 -168 -56 -98
-46 -175 -88 -259 -142 -46 -29 -22 10 58 93 54 56 79 90 75 100 -11 28 -42
15 -101 -42z"/>
<path d="M11954 9769 c-59 -22 -135 -85 -169 -139 -81 -128 -67 -301 32 -411
51 -56 101 -86 174 -105 152 -39 309 37 381 184 30 60 33 75 33 157 0 78 -4
97 -28 147 -35 71 -110 140 -183 167 -71 27 -171 27 -240 0z"/>
<path d="M19540 3375 c-673 -52 -1687 -58 -2345 -15 -71 5 -131 7 -133 6 -1
-2 7 -76 20 -165 l22 -161 36 0 c19 0 217 14 440 30 223 16 413 30 422 30 14
0 15 -5 7 -32 -14 -51 -11 -189 7 -249 77 -262 350 -421 609 -354 95 25 169
64 340 180 259 176 412 235 607 235 77 0 98 3 98 14 0 20 -71 27 -171 17 -195
-21 -284 -61 -571 -254 -165 -111 -253 -151 -367 -167 -276 -39 -532 188 -531
470 0 56 13 126 25 138 4 4 167 19 363 33 l357 27 40 -28 c159 -109 351 -146
529 -100 95 24 175 66 259 135 35 29 75 55 88 57 25 3 32 21 43 111 7 51 6 57
-11 56 -10 -1 -92 -8 -183 -14z m60 -170 c-27 -32 -155 -109 -223 -133 -100
-36 -269 -37 -367 -3 -69 24 -174 80 -166 88 2 3 172 17 378 33 205 15 377 28
382 29 5 0 3 -6 -4 -14z"/>
<path d="M17140 2793 c0 -18 18 -33 55 -49 199 -83 375 -289 430 -504 38 -147
14 -344 -61 -492 -46 -93 -78 -137 -160 -219 -42 -43 -65 -73 -62 -85 2 -14
17 -5 71 46 148 138 233 303 258 501 33 259 -98 542 -326 704 -87 62 -205 118
-205 98z"/>
<path d="M19572 2539 c-118 -23 -224 -105 -278 -214 -26 -55 -29 -69 -29 -165
0 -98 3 -113 43 -228 71 -200 60 -287 -52 -410 -66 -72 -130 -113 -340 -216
-195 -96 -252 -136 -318 -223 -99 -132 -128 -294 -81 -463 22 -81 50 -130 74
-130 19 0 19 1 -5 43 -37 64 -56 142 -56 232 0 144 46 254 149 355 59 58 91
78 291 180 201 102 232 122 292 181 94 92 123 156 123 269 0 77 -4 96 -45 200
-41 105 -44 123 -45 205 0 78 4 98 29 152 30 66 96 137 157 169 19 10 59 23
89 29 37 8 56 17 58 28 2 9 0 17 -5 16 -4 -1 -27 -5 -51 -10z"/>
<path d="M18435 2209 c-136 -20 -261 -75 -341 -151 -109 -103 -147 -192 -199
-464 -39 -204 -63 -296 -102 -388 -72 -171 -196 -299 -345 -355 -31 -12 -37
-31 -10 -31 31 0 136 56 194 104 146 119 231 307 288 631 32 180 49 242 91
333 85 184 246 276 504 289 132 6 208 -6 293 -48 141 -69 162 -211 51 -350
-17 -22 -99 -92 -182 -157 -357 -277 -525 -501 -581 -774 -30 -143 -16 -358
23 -358 16 0 17 4 3 68 -28 135 0 321 73 479 80 172 252 365 490 548 221 170
275 240 275 359 0 198 -221 309 -525 265z"/>
<path d="M19343 1181 c-104 -38 -186 -112 -232 -211 -23 -48 -26 -68 -26 -160
0 -94 3 -111 28 -161 15 -31 47 -77 70 -103 35 -36 50 -46 76 -46 l33 0 -44
33 c-124 94 -171 275 -109 420 43 99 164 194 272 212 24 4 39 12 39 21 0 19
-44 17 -107 -5z"/>
<path d="M17462 713 c-44 -9 -17 -28 37 -25 114 7 219 -53 260 -148 13 -30 28
-50 37 -50 21 0 12 39 -22 97 -26 44 -65 78 -124 108 -35 18 -143 28 -188 18z"/>
</g>
</svg>
