<?xml version="1.0" standalone="no"?>
<!DOCTYPE svg PUBLIC "-//W3C//DTD SVG 20010904//EN"
 "http://www.w3.org/TR/2001/REC-SVG-20010904/DTD/svg10.dtd">
<svg version="1.0" xmlns="http://www.w3.org/2000/svg"
 width="160.000000pt" height="43.000000pt" viewBox="0 0 160.000000 43.000000"
 preserveAspectRatio="xMidYMid meet">

<g transform="translate(0.000000,43.000000) scale(0.100000,-0.100000)"
fill="#000000" stroke="none">
<path d="M297 419 c-27 -15 -22 -57 7 -65 32 -8 46 2 46 31 0 29 -28 47 -53
34z"/>
<path d="M170 366 l0 -53 -50 5 c-44 4 -52 2 -80 -26 -26 -26 -30 -38 -30 -82
0 -43 5 -56 29 -80 27 -27 32 -29 115 -28 l86 1 0 158 0 159 -35 0 -35 0 0
-54z m-7 -120 c4 -6 6 -27 5 -46 -6 -70 -98 -60 -98 11 0 48 66 74 93 35z"/>
<path d="M645 400 c-4 -12 -1 -27 5 -35 27 -33 78 -5 65 35 -4 14 -15 20 -35
20 -20 0 -31 -6 -35 -20z"/>
<path d="M930 365 l0 -55 -40 6 c-56 9 -88 -2 -110 -39 -34 -55 -19 -141 29
-167 25 -13 77 -13 102 0 13 7 19 7 19 0 0 -5 14 -10 30 -10 l30 0 0 160 0
160 -30 0 c-30 0 -30 -1 -30 -55z m-27 -107 c28 -22 32 -63 8 -87 -25 -25 -48
-27 -73 -4 -24 21 -23 58 2 83 23 23 40 25 63 8z"/>
<path d="M1037 414 c-25 -25 8 -70 43 -59 32 10 24 59 -10 63 -14 2 -29 0 -33
-4z"/>
<path d="M280 210 l0 -110 35 0 35 0 0 110 0 110 -35 0 -35 0 0 -110z"/>
<path d="M421 299 c-51 -48 -51 -120 0 -163 33 -28 86 -35 107 -14 9 9 12 6
12 -15 0 -20 -7 -30 -24 -37 -29 -11 -63 -3 -70 16 -6 16 -66 19 -66 3 0 -59
104 -99 170 -66 45 22 60 70 60 190 l0 107 -30 0 c-16 0 -30 -5 -30 -10 0 -7
-6 -7 -19 0 -33 17 -85 12 -110 -11z m103 -42 c20 -15 25 -62 8 -79 -15 -15
-63 -13 -73 3 -15 24 -10 67 9 78 23 14 35 13 56 -2z"/>
<path d="M650 210 l0 -110 30 0 30 0 0 110 0 110 -30 0 -30 0 0 -110z"/>
<path d="M1040 210 l0 -110 30 0 30 0 0 110 0 110 -30 0 -30 0 0 -110z"/>
<path d="M1169 292 c-80 -71 -5 -211 93 -174 39 14 45 10 30 -23 -16 -35 -57
-43 -86 -16 -20 18 -76 30 -76 16 0 -4 7 -19 15 -35 29 -57 138 -65 186 -14
22 24 24 35 27 150 l4 124 -31 0 c-17 0 -31 -5 -31 -10 0 -7 -6 -7 -19 0 -35
18 -79 12 -112 -18z m111 -42 c11 -11 20 -27 20 -35 0 -18 -35 -55 -52 -55
-20 0 -48 32 -48 56 0 25 24 54 46 54 8 0 23 -9 34 -20z"/>
<path d="M1426 299 c-35 -28 -34 -49 4 -49 17 0 30 4 30 9 0 18 42 24 57 8 19
-19 9 -37 -21 -37 -85 0 -133 -63 -86 -110 23 -23 88 -28 108 -8 9 9 12 9 12
0 0 -7 14 -12 31 -12 l31 0 -4 91 c-3 81 -6 93 -27 110 -32 26 -100 25 -135
-2z m104 -110 c0 -24 -22 -49 -44 -49 -46 0 -39 41 9 53 32 8 35 8 35 -4z"/>
</g>
</svg>
